<?xml version="1.0" encoding="utf-8"?>
<!-- Generator: Adobe Illustrator 19.0.0, SVG Export Plug-In . SVG Version: 6.00 Build 0)  -->
<svg version="1.1" id="Calque_1" xmlns="http://www.w3.org/2000/svg" xmlns:xlink="http://www.w3.org/1999/xlink" x="0px" y="0px"
	 viewBox="0 0 203.3 107.3" style="enable-background:new 0 0 203.3 107.3;" xml:space="preserve">
<style type="text/css">
	.st0{fill:#000000;}
	.st1{fill:#E30613;}
</style>
<g>
	<path class="st0" d="M0.9,13.3h14.6v91.9H0.9V13.3z"/>
	<path class="st0" d="M88.9,76.7c0,0.6,0,1.3,0,1.9c0,0.6,0,1.3-0.1,1.9H44.4c0.2,2.1,0.7,4,1.6,5.8c0.9,1.7,2.2,3.2,3.7,4.5
		c1.5,1.3,3.3,2.2,5.2,3c1.9,0.7,4,1.1,6.1,1.1c3.6,0,6.7-0.7,9.2-2c2.5-1.3,4.6-3.2,6.2-5.5l9.7,7.8c-5.8,7.8-14.1,11.7-25,11.7
		c-4.5,0-8.7-0.7-12.5-2.1c-3.8-1.4-7.1-3.4-9.9-6c-2.8-2.6-5-5.8-6.6-9.5c-1.6-3.8-2.4-8-2.4-12.8c0-4.7,0.8-9,2.4-12.8
		c1.6-3.8,3.7-7.1,6.5-9.8c2.8-2.7,6-4.8,9.8-6.3c3.8-1.5,7.8-2.2,12.2-2.2c4,0,7.8,0.7,11.2,2c3.4,1.3,6.4,3.3,8.9,6
		c2.5,2.6,4.5,5.9,5.9,9.8C88.2,66.9,88.9,71.5,88.9,76.7z M74.3,70.2c0-1.9-0.3-3.6-0.8-5.3c-0.5-1.7-1.4-3.2-2.5-4.5
		c-1.1-1.3-2.6-2.3-4.3-3.1c-1.7-0.8-3.8-1.2-6.1-1.2c-4.4,0-8.1,1.3-11.1,3.9c-3,2.6-4.7,6-5,10.1H74.3z"/>
	<path class="st0" d="M138.4,97.8h-0.4c-1.5,2.6-3.8,4.7-7,6.4c-3.2,1.7-6.9,2.5-11.1,2.5c-2.4,0-4.8-0.3-7.4-0.9
		c-2.6-0.6-4.9-1.6-7-3c-2.1-1.4-3.9-3.3-5.3-5.6c-1.4-2.3-2.1-5.2-2.1-8.6c0-4.4,1.2-7.9,3.7-10.5c2.5-2.6,5.7-4.6,9.5-6
		c3.9-1.4,8.2-2.3,12.9-2.7c4.7-0.4,9.4-0.7,13.9-0.7v-1.5c0-3.6-1.3-6.3-3.9-8.1c-2.6-1.7-5.8-2.6-9.4-2.6c-3.1,0-6,0.6-8.9,1.9
		c-2.8,1.3-5.2,2.9-7,4.7l-7.5-8.9c3.3-3.1,7.1-5.4,11.5-6.9c4.3-1.5,8.7-2.3,13.2-2.3c5.2,0,9.5,0.7,12.8,2.2c3.4,1.5,6,3.4,8,5.7
		c1.9,2.4,3.3,5,4.1,7.9c0.8,2.9,1.2,5.8,1.2,8.7v35.5h-13.6V97.8z M138.2,78.6h-3.3c-2.4,0-4.8,0.1-7.4,0.3c-2.6,0.2-5,0.6-7.2,1.3
		c-2.2,0.7-4,1.7-5.5,2.9c-1.5,1.3-2.2,3-2.2,5.2c0,1.4,0.3,2.5,0.9,3.5c0.6,0.9,1.4,1.7,2.4,2.2c1,0.6,2.1,1,3.3,1.2
		c1.2,0.2,2.4,0.4,3.6,0.4c5,0,8.8-1.3,11.4-4c2.6-2.7,3.9-6.3,3.9-10.9V78.6z"/>
	<path class="st0" d="M171.4,58.5h-11.1V46.8h11.1v-8.6c0-3.5,0.4-6.8,1.2-10c0.8-3.2,2.1-6,3.9-8.4c1.8-2.4,4.2-4.4,7.2-5.8
		c3-1.4,6.8-2.1,11.3-2.1c1.6,0,3,0.1,4.1,0.2s2.2,0.3,3.3,0.7l-1,12.4c-0.8-0.2-1.7-0.4-2.6-0.6c-0.9-0.2-1.9-0.2-3-0.2
		c-2.1,0-3.8,0.4-5.1,1.2c-1.3,0.8-2.3,1.9-3,3.2c-0.7,1.3-1.2,2.7-1.4,4.3c-0.2,1.5-0.4,3-0.4,4.5v9.5h13.5v11.7H186v46.7h-14.6
		V58.5z"/>
</g>
<path class="st1" d="M135.4,23.5C111.4,6,78.6,6,54.6,23.4l-15.3,0.1c30.7-30.7,80.6-30.7,111.3,0L135.4,23.5z"/>
</svg>
